<svg width="127" height="99" viewBox="0 0 127 99" fill="none" xmlns="http://www.w3.org/2000/svg">
<path d="M34.927 54.647L34.143 64.066L32.866 75.741L31.886 85.258L29.532 90.162L29.727 93.106L34.338 93.695L42.384 93.5L43.07 89.966L38.753 61.808L40.813 50.968L34.927 54.647Z" fill="#AA8984"/>
<path d="M103.408 71.523L100.857 74.759L98.993 82.117L98.894 86.337L100.66 92.517L100.465 94.088L89.574 94.48L85.356 93.792L84.473 91.535L85.454 89.281L86.63 85.356L87.711 75.348L88.593 62.399L96.245 62.301L103.408 71.523Z" fill="#6D5B5D"/>
<path d="M18.836 12.804L19.573 10.89L21.485 9.02704L23.743 7.26004L37.233 3.97504L40.619 3.23804L46.209 5.74004L52.685 9.86104L63.722 13.981L69.314 14.129L85.356 12.216L96.834 11.921L107.873 17.66L116.408 24.871L123.471 33.849L124.649 47.975L125.237 64.164V67.695L124.207 67.843L123.471 60.191L122 42.09L121.558 43.413L118.761 53.126L118.321 59.013L119.35 69.607L117.732 74.023L116.408 76.379L116.847 82.707L118.174 91.242L119.938 94.628L119.498 96.687L115.23 97.864L105.37 98.158L103.309 97.864L102.72 95.805L105.222 93.303L106.548 90.065L105.958 82.412L102.426 72.699L97.57 67.254L94.185 64.164L90.359 64.901L75.79 66.372L64.459 63.869L51.066 58.572L49.889 63.134L49.743 67.254L48.711 75.79L49.448 88.005L50.92 92.272L51.215 97.228L39.833 98.404L35.026 97.816L34.535 94.088L35.566 91.292L36.449 90.849L37.527 89.034L38.263 85.651L36.938 69.315L33.848 51.508L32.081 42.825L30.168 36.35L28.403 37.087L24.576 40.323L22.516 40.765L18.836 40.176L17.365 44.885L16.777 50.331L16.63 56.217L18.984 59.454L21.192 59.16L22.076 55.188L20.897 54.598L19.721 56.658L20.015 57.689L19.279 57.984L17.219 54.745L17.071 51.948H19.426L22.664 51.655L25.313 55.188L25.754 60.043L23.399 64.458L16.777 65.929L11.773 59.749L10.155 52.097L11.333 41.5L13.392 31.492L15.599 24.871L16.334 18.544L17.513 14.864L18.836 12.804Z" fill="#6D5B5D"/>
<path d="M125.581 67.304L123.618 67.501L123.031 72.405L124.01 76.723L123.52 79.272L122.636 80.351L125.089 78.684L126.462 75.545L126.758 70.149L125.581 67.304Z" fill="#6D5B5D"/>
<path d="M30.168 36.35L28.403 37.087L24.576 40.323L22.516 40.765L20.109 40.379L19.868 37.233L20.897 36.645L22.076 37.087L22.81 38.999L23.988 38.557L27.962 35.909L30.61 33.407L34.143 32.229L35.173 34.143L32.376 35.614L33.555 39.147L34.878 46.356L35.909 54.745L34.756 56.742L33.848 51.508L32.081 42.825L30.168 36.35Z" fill="#5E4D4F"/>
<path d="M52.2431 12.2159L54.1561 15.0109L55.481 19.5729L54.8931 22.5159L50.9201 29.2859L49.5941 33.8489L50.9201 37.2329L61.2201 43.1199L74.4651 47.9749L83.2961 48.2709L100.807 39.4399H104.193H109.196L111.55 33.2609L109.343 23.9889L105.736 16.5509L107.873 17.6599L116.408 24.8709L123.471 33.8489L124.649 47.9749L125.237 64.1639V67.6949L124.207 67.8429L123.471 60.1909L122 42.0899L121.558 43.4129L118.761 53.1259L118.321 59.0129L119.35 69.6069L117.732 74.0229L116.408 76.3789L116.847 82.7069L118.174 91.2419L119.938 94.6279L119.498 96.6869L115.23 97.8639L105.37 98.1579L103.309 97.8639L102.72 95.8049L105.222 93.3029L106.548 90.0649L105.958 82.4119L102.426 72.6989L97.5701 67.2539L94.1851 64.1639L90.3591 64.9009L75.7901 66.3719L64.4591 63.8689L51.0661 58.5719L49.8891 63.1339L49.7431 67.2539L48.7111 75.7899L49.4481 88.0049L50.9201 92.2719L51.2151 97.2279L41.1841 98.2639L41.5001 94.4799L43.7081 91.5349L44.7381 88.1509L43.8551 80.7939L42.0891 70.9349L44.1501 62.6919L42.9731 55.6289L41.6481 51.8019L39.2931 44.2959L36.203 41.7949L35.9091 37.6739L44.884 17.2189L52.2431 12.2159Z" fill="#5E4D4F"/>
<path d="M113.48 97.916L112.727 96.245L113.463 92.861L110.667 92.125L110.225 90.801L110.52 86.534L111.109 79.764L111.255 74.613L113.463 71.376L113.609 64.901C113.609 64.901 114.788 55.629 114.788 55.188C114.788 54.745 117.289 46.21 117.289 46.21L120.085 39.881L121.852 35.173L122.148 40.323L121.992 42.108L121.558 43.414L118.761 53.127L118.321 59.014L119.35 69.608L117.732 74.024L116.408 76.379L116.847 82.707L118.174 91.242L119.938 94.628L119.497 96.688L115.229 97.865L113.48 97.916Z" fill="#47383B"/>
<path d="M51.066 58.572L50.783 59.667L51.215 56.658L52.685 50.772L54.009 50.331L54.303 52.243L54.745 54.598L57.248 55.924L65.929 58.425L78.881 60.191L87.269 57.984L91.536 55.483L95.363 52.98L97.865 49.743L100.66 46.356L101.691 46.799L99.042 51.36L96.834 58.425L95.509 61.808V65.372L94.185 64.164L90.359 64.901L75.79 66.372L64.459 63.869L51.066 58.572Z" fill="#47383B"/>
<path d="M15.2061 49.447L16.285 42.482L18.5431 39.342L20.701 38.951L20.8381 40.496L18.8361 40.176L17.3651 44.885L16.7771 50.331L16.6301 56.217L18.9841 59.454L21.1921 59.16L22.076 55.188L20.897 54.598L19.7211 56.658L20.0151 57.689L19.2791 57.984L17.2191 54.745L17.0711 51.948H19.4261L21.5191 51.759L21.6831 53.077L22.8581 54.059L22.7621 56.316V59.749L21.093 61.418H18.5431L16.8761 59.65L15.5991 56.0201L15.2061 49.447Z" fill="#5E4D4F"/>
<path d="M19.033 56.119L19.72 54.551L18.149 52.98L18.052 54.157L19.033 56.119Z" fill="#47383B"/>
<path d="M56.5111 15.797L48.4671 10.302L48.3051 7.07202L52.6851 9.86102L63.7221 13.981L69.3141 14.129L85.356 12.216L96.8341 11.921L100.975 14.073L97.1291 13.834L88.4951 15.011L77.1131 18.544L66.1261 17.954L56.5111 15.797Z" fill="#AA8984"/>
<path d="M13.392 31.492L15.599 24.871L16.334 18.544L17.513 14.864L18.836 12.804L19.573 10.89L21.485 9.02704L23.743 7.26004L37.233 3.97504L40.619 3.23804L40.912 3.36904L36.694 5.10304L30.217 7.16204L23.153 9.32204L21.192 11.284L19.622 13.637L17.66 17.17L16.68 21.682V25.41L14.324 31.885L13.342 35.614L12.162 37.47L13.392 31.492Z" fill="#AA8984"/>
<path d="M18.8361 20.114L19.6221 17.954L20.897 16.974L24.037 17.268L26.2931 20.016L26.1951 22.271C26.1951 22.271 23.7431 24.037 23.6451 24.331C23.5461 24.626 21.2911 24.919 20.9971 24.919C20.7021 24.919 18.8371 23.839 18.8371 23.839L18.8361 20.114Z" fill="#6D5B5D"/>
<path d="M23.645 19.917L24.137 21.486L22.368 21.879L20.309 22.174V20.899L21.094 19.524L23.645 19.917Z" fill="#47383B"/>
<path d="M19.526 19.72L19.249 18.984L19.623 17.954L20.898 16.974L24.038 17.268L26.294 20.016L26.196 22.271C26.196 22.271 26.167 22.293 26.124 22.323L25.902 21.879L24.233 20.899L21.291 20.406L19.526 19.72Z" fill="#AA8984"/>
<path d="M18.87 23.86L20.113 24.037L22.86 23.744L24.541 23.514C24.076 23.883 23.682 24.217 23.645 24.332C23.546 24.627 21.291 24.92 20.997 24.92C20.723 24.92 19.11 23.997 18.87 23.86Z" fill="#5E4D4F"/>
<path d="M35.481 97.871L35.809 94.579L36.398 93.597L36.987 94.2821L36.791 96.147V98.0321L35.481 97.871Z" fill="#5E4D4F"/>
<path d="M39.8331 98.404L37.7561 98.149L37.576 95.364L38.6551 94.48L39.7351 94.775L40.856 98.299L39.8331 98.404Z" fill="#AA8984"/>
<path d="M106.449 94.97L107.462 98.097L105.37 98.158L103.976 97.959L103.898 96.735L105.174 94.97H106.449Z" fill="#6D5B5D"/>
<path d="M108.329 98.071L108.411 95.951L109.393 95.067L110.864 96.147L110.986 97.991L108.329 98.071Z" fill="#6D5B5D"/>
<path d="M88.397 90.556L89.182 93.106V94.415L85.509 93.818L85.356 92.124L86.925 89.968L88.397 90.556Z" fill="#5E4D4F"/>
<path d="M36.6941 5.103L39.3441 4.219L42.0891 2.062L43.953 0L47.3871 2.158L51.8021 7.654L53.6651 17.17L52.4891 20.212L44.9351 31.984L40.619 38.459L39.9321 40.225L37.0861 40.52L34.7331 36.987L32.5731 30.61L34.1431 23.94L34.2401 19.329L32.6711 16.385L31.1021 16.189L32.9641 11.186L35.0261 8.34L36.6941 5.103Z" fill="#6D5B5D"/>
<path d="M32.9641 11.186L35.0261 8.33996L36.6941 5.10297L39.3441 4.21897L40.1761 3.56396L41.6481 4.26897L45.4741 7.50597L49.1541 13.981L44.2971 27.226L40.3231 31.787L37.0861 32.229L35.173 29.579L33.44 26.925L34.1431 23.94L34.2401 19.329L32.6711 16.385L31.1021 16.189L32.9641 11.186Z" fill="#AA8984"/>
<path d="M20.603 37.381L21.339 37.968L22.076 39.587L21.487 40.617L19.426 41.795L14.422 43.708L6.624 44.885L1.472 44.591L0 43.56V42.53L1.913 43.12L7.505 42.384L13.54 40.912L18.102 39.147L20.603 37.381Z" fill="#F9D9B9"/>
<path d="M0 43.56V43.48L1.252 43.781H7.137L13.687 42.751L20.088 40.028L21.556 38.446L22.076 39.587L21.487 40.617L19.426 41.795L14.422 43.708L6.624 44.885L1.472 44.591L0 43.56Z" fill="#D8A97C"/>
</svg>
